<?xml version="1.0" standalone="no"?>
<!DOCTYPE svg PUBLIC "-//W3C//DTD SVG 20010904//EN"
 "http://www.w3.org/TR/2001/REC-SVG-20010904/DTD/svg10.dtd">
<svg version="1.0" xmlns="http://www.w3.org/2000/svg"
 width="2400.000000pt" height="2400.000000pt" viewBox="0 0 2400.000000 2400.000000"
 preserveAspectRatio="xMidYMid meet">
<metadata>
Created by potrace 1.11, written by Peter Selinger 2001-2013
</metadata>
<g transform="translate(0.000000,2400.000000) scale(0.100000,-0.100000)"
fill="#000000" stroke="none">
<path d="M14038 23995 c-2 -2 -95 -6 -208 -10 -113 -3 -232 -8 -265 -10 -33
-2 -109 -6 -170 -10 -213 -12 -346 -21 -470 -31 -38 -4 -90 -8 -115 -9 -25 -2
-76 -6 -115 -9 -67 -6 -95 -9 -210 -21 -66 -7 -177 -13 -360 -20 -82 -3 -199
-7 -260 -10 -60 -3 -171 -7 -245 -10 -74 -3 -178 -8 -230 -10 -52 -2 -162 -7
-245 -10 -82 -3 -186 -8 -230 -10 -44 -2 -147 -7 -230 -10 -217 -9 -303 -13
-455 -19 -74 -4 -187 -8 -250 -11 -250 -10 -400 -16 -505 -20 -108 -5 -228
-10 -515 -20 -80 -3 -206 -7 -280 -10 -750 -27 -1514 -44 -2270 -50 -294 -3
-566 -7 -605 -9 -142 -10 -241 -18 -270 -21 -16 -2 -57 -7 -90 -10 -33 -4 -69
-8 -80 -10 -11 -1 -47 -6 -80 -10 -33 -4 -69 -9 -80 -11 -11 -2 -47 -9 -80
-14 -196 -34 -411 -85 -580 -135 -66 -20 -127 -38 -135 -40 -8 -2 -53 -17
-100 -33 -584 -202 -1100 -496 -1595 -908 -155 -129 -494 -465 -624 -619 -51
-60 -102 -121 -114 -135 -12 -14 -76 -97 -142 -185 -223 -296 -366 -520 -585
-919 -131 -238 -325 -665 -440 -966 -17 -47 -36 -94 -40 -105 -33 -77 -185
-535 -216 -650 -2 -5 -19 -66 -39 -135 -31 -108 -101 -375 -110 -420 -2 -8 -8
-33 -14 -55 -11 -45 -82 -369 -87 -400 -1 -11 -7 -42 -13 -70 -6 -27 -12 -59
-15 -70 -2 -11 -7 -40 -11 -65 -4 -25 -9 -54 -11 -65 -4 -19 -39 -232 -50
-300 -2 -16 -6 -41 -9 -55 -6 -35 -13 -86 -20 -146 -3 -28 -7 -61 -10 -73 -2
-12 -7 -49 -10 -82 -4 -33 -8 -68 -10 -77 -1 -9 -6 -46 -9 -82 -10 -101 -17
-163 -21 -190 -2 -14 -6 -65 -10 -115 -4 -49 -8 -103 -10 -120 -2 -16 -7 -73
-10 -125 -3 -52 -8 -117 -10 -145 -27 -358 -27 -1382 0 -1675 2 -19 6 -80 10
-135 4 -55 8 -113 10 -130 2 -16 6 -66 9 -110 6 -75 13 -147 21 -205 2 -14 6
-56 10 -93 3 -37 8 -76 10 -85 1 -9 6 -55 10 -101 4 -47 8 -92 10 -100 1 -9 6
-52 9 -96 4 -44 9 -102 11 -130 3 -27 7 -86 10 -130 3 -44 7 -116 10 -160 44
-707 46 -1451 8 -3225 -15 -730 -9 -2123 12 -2467 2 -37 7 -117 10 -178 6
-112 11 -188 20 -305 3 -36 7 -103 10 -150 3 -47 8 -98 10 -115 2 -16 6 -57
10 -90 3 -33 7 -78 10 -100 2 -22 7 -67 10 -100 3 -33 8 -73 10 -90 2 -16 13
-104 25 -195 11 -91 23 -176 25 -190 3 -14 10 -54 15 -90 12 -71 12 -73 40
-236 63 -356 165 -779 269 -1104 55 -173 82 -255 91 -275 5 -11 25 -65 45
-120 91 -250 285 -666 414 -889 28 -49 51 -91 51 -93 0 -4 68 -111 176 -273
99 -150 290 -407 334 -450 3 -3 39 -45 80 -95 41 -49 160 -176 265 -281 207
-208 333 -320 570 -506 146 -115 273 -198 376 -247 149 -70 328 -151 334 -151
3 0 25 -9 50 -20 25 -11 64 -28 88 -39 166 -73 631 -234 917 -317 163 -48 494
-132 620 -159 41 -9 84 -18 95 -21 11 -2 31 -6 45 -9 14 -3 34 -7 45 -9 109
-23 256 -51 380 -71 207 -34 204 -34 255 -40 25 -3 72 -10 105 -15 33 -5 83
-12 110 -15 28 -3 64 -8 82 -10 33 -5 187 -22 263 -30 147 -15 142 -15 330
-30 109 -9 200 -15 310 -21 58 -3 130 -7 160 -9 443 -26 1595 -26 2190 0 52 2
163 7 245 10 199 8 404 18 620 30 44 2 132 7 195 10 258 13 381 19 570 30 52
3 142 8 200 10 107 5 218 11 370 19 47 3 146 8 220 11 74 3 164 8 200 10 36 2
144 7 240 11 96 3 204 8 240 9 250 11 745 19 1135 19 507 -1 789 -8 1140 -29
214 -13 315 -20 410 -29 22 -2 78 -7 125 -11 47 -4 92 -9 100 -10 8 -2 53 -6
100 -10 47 -4 87 -8 90 -10 3 -1 37 -6 75 -9 62 -6 97 -12 195 -31 14 -3 40
-8 59 -11 18 -3 43 -8 55 -10 11 -2 36 -7 55 -10 18 -3 43 -7 54 -10 12 -2 39
-6 62 -9 22 -3 65 -10 95 -15 81 -13 143 -22 255 -35 22 -3 58 -7 80 -10 22
-2 66 -7 98 -10 64 -6 138 -12 212 -19 293 -28 988 -28 1325 -1 127 10 200 16
230 20 19 2 62 7 95 11 96 10 107 11 165 18 30 4 64 9 75 12 11 2 36 6 55 8
36 5 97 14 140 22 14 2 41 7 60 10 34 5 314 61 355 70 11 3 31 7 45 10 14 3
33 7 42 10 9 3 25 6 35 8 282 57 909 264 1201 397 34 16 65 29 67 29 9 0 406
197 485 240 758 417 1393 989 1840 1660 59 89 137 216 153 250 4 8 17 31 28
50 57 94 177 345 238 500 21 52 42 104 46 115 4 11 9 25 11 30 1 6 13 42 27
80 51 142 137 454 161 581 25 139 46 257 51 294 3 25 8 56 10 70 2 14 7 57 11
95 3 39 8 79 10 90 25 132 25 830 0 1070 -22 208 -36 329 -42 360 -9 44 -22
141 -22 155 0 8 -3 89 -7 180 -13 307 -25 595 -30 750 -2 63 -6 187 -10 275
-10 275 -15 421 -30 940 -6 178 -10 355 -20 770 -12 495 -13 535 -30 1560 -23
1358 -23 3973 0 5740 10 752 19 1345 30 1935 1 102 4 271 5 375 l2 190 -52
155 c-152 450 -337 855 -568 1240 -69 114 -210 333 -239 370 -7 8 -30 40 -52
70 -121 168 -246 320 -406 499 -76 85 -362 369 -434 431 -35 30 -74 65 -86 76
-21 19 -226 188 -250 206 -5 4 -25 20 -43 34 -33 27 -187 139 -278 204 -415
293 -1015 612 -1564 832 -252 101 -488 188 -512 188 -8 0 -17 3 -21 6 -12 12
-294 101 -502 159 -71 20 -143 40 -160 45 -134 41 -705 171 -905 206 -14 2
-45 8 -70 14 -47 10 -257 46 -325 55 -49 8 -82 13 -115 20 -14 3 -50 7 -80 10
-30 4 -62 8 -70 10 -8 2 -37 7 -65 10 -27 4 -61 8 -75 10 -14 2 -50 6 -80 10
-30 4 -66 8 -80 10 -14 2 -52 7 -85 10 -33 3 -71 8 -85 10 -14 2 -56 7 -95 10
-38 4 -86 8 -105 11 -57 7 -119 12 -215 19 -49 3 -101 8 -115 10 -14 2 -70 7
-125 10 -55 3 -127 8 -160 10 -33 2 -118 7 -190 11 -71 3 -157 8 -190 10 -74
5 -1332 13 -1337 9z m-603 -1399 c441 -14 830 -29 1020 -41 39 -2 117 -7 175
-10 58 -3 132 -7 165 -10 33 -2 103 -7 155 -10 52 -3 115 -8 140 -10 25 -2 88
-6 140 -10 52 -3 118 -8 145 -10 113 -9 202 -17 235 -20 19 -2 71 -6 115 -10
44 -3 96 -8 115 -10 19 -2 69 -7 110 -11 41 -3 89 -8 105 -10 17 -1 59 -5 95
-9 36 -3 76 -7 90 -10 14 -2 59 -7 100 -10 41 -3 89 -8 105 -10 28 -4 62 -8
165 -20 25 -3 61 -7 80 -10 113 -14 202 -25 255 -31 33 -3 67 -8 76 -9 9 -2
40 -6 70 -10 30 -3 65 -8 79 -10 14 -2 43 -7 65 -9 54 -7 306 -43 354 -51 13
-2 45 -7 70 -11 68 -9 89 -12 166 -24 39 -7 79 -13 90 -15 18 -2 127 -20 180
-29 11 -2 40 -7 65 -11 25 -4 54 -9 65 -11 11 -3 36 -7 55 -10 19 -3 46 -7 60
-10 26 -5 100 -18 160 -29 19 -3 71 -13 115 -21 44 -9 94 -18 110 -20 17 -3
50 -9 75 -14 25 -5 61 -12 80 -15 19 -4 64 -12 100 -20 36 -8 79 -17 95 -19
17 -3 109 -22 205 -42 171 -36 178 -38 275 -97 140 -85 490 -320 515 -347 3
-3 43 -34 90 -70 364 -277 752 -661 1055 -1043 17 -21 35 -44 40 -50 6 -7 30
-39 54 -72 25 -33 48 -61 53 -63 4 -2 8 -9 8 -15 0 -6 8 -20 19 -31 53 -59
310 -466 420 -666 41 -74 219 -433 259 -520 82 -182 204 -494 257 -655 15 -44
30 -89 35 -100 9 -22 76 -237 109 -350 22 -75 127 -483 135 -525 3 -14 12 -59
21 -100 20 -90 24 -109 29 -135 2 -11 15 -78 30 -150 31 -158 56 -304 81 -475
26 -173 34 -229 41 -288 3 -26 7 -58 9 -72 2 -14 7 -50 10 -80 3 -30 8 -66 10
-80 2 -14 7 -61 11 -105 3 -44 8 -87 9 -96 2 -8 6 -53 10 -100 4 -46 8 -100
10 -119 2 -19 6 -73 10 -120 3 -47 8 -110 10 -140 48 -605 61 -1654 30 -2505
-11 -311 -16 -421 -20 -520 -10 -197 -23 -454 -30 -585 -2 -47 -7 -132 -10
-190 -3 -58 -8 -136 -10 -175 -3 -38 -7 -108 -10 -155 -2 -47 -7 -116 -9 -155
-3 -38 -8 -115 -11 -170 -3 -55 -8 -127 -10 -160 -2 -33 -7 -107 -10 -165 -15
-256 -25 -408 -30 -495 -3 -38 -7 -106 -10 -150 -2 -44 -7 -129 -11 -190 -11
-174 -9 -239 10 -341 2 -11 7 -50 11 -89 4 -38 8 -83 10 -100 2 -16 7 -64 10
-105 3 -41 8 -95 10 -120 26 -297 26 -1007 0 -1270 -2 -19 -6 -71 -10 -115 -3
-44 -8 -91 -10 -105 -2 -14 -6 -54 -10 -90 -4 -36 -8 -76 -10 -90 -2 -14 -6
-43 -9 -65 -15 -112 -18 -135 -28 -195 -5 -36 -12 -75 -13 -87 -2 -12 -6 -36
-10 -53 -4 -17 -8 -41 -10 -53 -2 -19 -15 -89 -30 -165 -2 -13 -6 -31 -9 -40
-3 -9 -8 -29 -11 -44 -3 -16 -7 -40 -10 -55 -40 -199 -207 -791 -262 -923 -3
-8 -7 -17 -7 -20 -2 -8 -56 -148 -111 -290 -101 -256 -300 -672 -414 -860 -11
-19 -24 -42 -28 -50 -64 -138 -439 -686 -590 -862 -21 -25 -56 -66 -78 -93
-159 -193 -442 -481 -640 -650 -38 -33 -79 -68 -90 -78 -11 -10 -65 -53 -120
-96 -468 -365 -933 -624 -1501 -835 -65 -24 -209 -72 -244 -81 -8 -2 -40 -11
-70 -20 -184 -53 -478 -121 -605 -140 -22 -3 -65 -10 -95 -15 -30 -5 -77 -12
-105 -15 -27 -3 -66 -8 -85 -10 -19 -3 -64 -7 -100 -10 -36 -4 -78 -8 -95 -10
-219 -27 -829 -21 -1095 10 -25 2 -70 7 -100 10 -73 8 -126 14 -159 19 -14 3
-62 10 -106 16 -84 12 -108 16 -190 31 -85 15 -307 47 -370 54 -33 3 -69 8
-80 10 -11 2 -58 7 -105 10 -47 4 -96 8 -109 10 -13 3 -69 7 -125 10 -56 4
-119 8 -141 10 -210 19 -966 25 -1320 10 -110 -4 -225 -9 -255 -10 -171 -7
-542 -33 -725 -50 -33 -3 -87 -7 -120 -10 -73 -6 -174 -14 -235 -20 -25 -3
-76 -7 -115 -11 -38 -3 -81 -7 -95 -9 -14 -2 -56 -6 -95 -10 -38 -3 -90 -8
-115 -10 -25 -3 -67 -8 -95 -10 -27 -3 -70 -8 -95 -10 -25 -3 -65 -8 -90 -10
-25 -2 -70 -7 -100 -10 -30 -3 -77 -8 -105 -11 -71 -8 -112 -12 -175 -18 -30
-3 -75 -8 -100 -11 -66 -8 -117 -13 -185 -20 -65 -6 -120 -13 -175 -20 -19 -3
-64 -7 -100 -10 -36 -3 -78 -7 -95 -9 -16 -2 -64 -7 -105 -10 -41 -4 -86 -9
-100 -11 -23 -4 -65 -8 -215 -20 -33 -3 -78 -7 -100 -10 -22 -3 -71 -7 -110
-10 -38 -3 -90 -8 -115 -10 -25 -2 -79 -7 -120 -10 -41 -4 -91 -8 -110 -10
-19 -2 -82 -7 -140 -10 -58 -4 -123 -8 -145 -10 -36 -4 -144 -11 -310 -20
-468 -27 -1404 -27 -1661 0 -21 2 -75 6 -119 10 -98 7 -224 19 -320 30 -86 10
-152 18 -170 21 -11 1 -40 5 -65 9 -39 5 -263 41 -370 60 -446 77 -1074 266
-1465 441 -22 10 -42 18 -45 19 -72 22 -498 241 -663 341 -49 30 -92 54 -98
54 -5 0 -9 5 -9 10 0 6 -5 10 -10 10 -20 0 -367 240 -465 322 -93 77 -358 335
-451 438 -270 300 -556 746 -714 1110 -22 52 -45 104 -50 115 -82 179 -200
555 -270 858 -22 95 -68 339 -76 397 -2 19 -9 60 -14 90 -5 30 -12 78 -15 105
-7 61 -14 110 -20 150 -2 17 -7 66 -10 110 -4 44 -8 91 -11 105 -2 14 -6 66
-10 115 -3 50 -7 110 -9 135 -27 329 -27 1261 0 1925 5 113 13 307 20 505 3
74 8 180 10 235 14 325 19 594 20 1030 0 511 -7 757 -31 1030 -3 44 -8 98 -10
120 -8 97 -32 301 -49 415 -8 51 -15 169 -20 320 -3 85 -7 193 -10 240 -2 47
-7 157 -10 245 -3 88 -8 196 -10 240 -3 44 -7 145 -9 225 -3 80 -8 195 -11
255 -3 61 -7 169 -10 240 -2 72 -7 202 -10 290 -4 88 -8 210 -10 270 -2 61 -6
198 -10 305 -35 1097 -39 2407 -10 3170 8 224 16 396 19 460 3 36 8 126 11
200 4 74 9 151 10 170 1 19 5 87 9 150 4 63 9 131 11 150 2 19 6 78 10 130 4
52 8 113 10 135 2 22 7 69 10 105 12 150 15 187 20 230 3 25 12 115 20 200 8
85 17 166 20 180 2 14 7 57 10 95 3 39 10 97 15 130 5 33 12 82 15 109 10 85
169 365 332 583 46 62 89 118 96 125 6 7 39 45 72 83 92 107 268 278 390 379
149 123 231 186 243 186 6 0 12 4 14 9 4 11 216 151 229 151 5 0 9 5 9 10 0 6
4 10 8 10 5 0 60 29 123 65 143 82 380 199 524 259 61 26 119 51 130 56 80 37
483 175 645 220 136 39 295 81 320 86 14 3 59 14 100 24 69 17 273 61 345 74
17 3 41 8 55 11 14 3 39 7 55 10 17 3 53 10 80 15 28 5 66 12 85 14 19 3 44 7
55 9 46 9 93 17 140 22 28 4 61 8 75 11 38 7 246 32 320 39 36 3 76 8 90 10
14 2 54 7 90 10 36 3 81 8 100 10 19 3 58 7 85 10 127 12 162 16 190 20 37 5
110 13 195 20 36 3 85 7 110 10 106 11 192 19 310 30 155 14 188 17 210 20 14
2 63 6 110 10 82 5 147 11 220 20 19 2 78 7 130 10 52 4 106 8 120 10 14 2 68
6 120 10 52 3 111 8 130 10 31 3 98 8 265 20 28 2 84 6 125 10 41 3 109 7 150
10 138 8 255 16 305 21 28 2 100 6 160 9 61 3 130 7 155 10 25 2 110 7 190 10
80 4 170 8 200 10 30 2 120 6 200 10 80 4 183 8 230 11 47 2 155 6 240 9 85 3
209 7 275 10 66 2 248 7 405 11 157 3 286 7 288 8 4 5 1660 -3 1817 -8z"/>
<path d="M10789 20186 c-2 -2 -88 -7 -191 -10 -102 -4 -199 -9 -215 -11 -15
-2 -73 -6 -128 -10 -55 -3 -118 -8 -140 -10 -22 -2 -69 -7 -105 -10 -36 -4
-78 -8 -95 -10 -59 -7 -121 -15 -170 -20 -44 -6 -323 -46 -415 -61 -311 -48
-736 -145 -1100 -251 -1048 -302 -2021 -814 -2740 -1442 -41 -37 -77 -68 -80
-71 -4 -4 -130 -120 -246 -225 -21 -19 -250 -231 -329 -304 -351 -327 -652
-638 -944 -976 -345 -401 -689 -949 -872 -1394 -146 -354 -255 -770 -294
-1121 -4 -30 -8 -68 -10 -85 -11 -86 -20 -301 -20 -465 0 -167 12 -457 20
-470 1 -3 6 -39 9 -80 23 -261 112 -698 207 -1028 80 -276 241 -723 334 -927
7 -16 34 -77 60 -135 153 -343 358 -698 589 -1020 268 -375 606 -739 951
-1024 39 -32 79 -66 90 -75 23 -19 198 -150 265 -198 90 -65 338 -222 469
-297 784 -448 1749 -751 2781 -871 74 -9 149 -18 165 -20 17 -2 71 -7 120 -11
50 -3 92 -8 95 -9 3 -2 57 -6 120 -10 63 -4 122 -9 130 -11 8 -1 29 -3 45 -3
25 -1 34 -8 52 -44 34 -65 146 -299 160 -332 7 -17 20 -48 29 -70 88 -210 165
-499 182 -683 16 -178 6 -378 -27 -517 -114 -476 -457 -869 -1066 -1222 -242
-140 -558 -287 -875 -406 -147 -56 -440 -154 -870 -291 -129 -41 -288 -92
-352 -112 -65 -21 -115 -41 -110 -44 4 -4 84 -34 177 -68 94 -33 227 -81 297
-106 71 -25 185 -67 255 -93 125 -47 131 -48 226 -45 85 2 120 -3 240 -32 78
-20 156 -37 172 -40 17 -2 73 -11 125 -20 214 -35 303 -41 605 -41 231 0 467
10 485 20 3 1 34 6 70 9 54 6 330 51 365 60 6 1 37 8 70 15 246 53 704 197
890 281 11 5 74 32 140 61 390 169 811 416 1355 796 492 343 891 667 1204 978
244 243 398 421 538 625 215 314 331 587 382 904 3 16 6 30 8 31 2 1 149 5
328 9 179 4 341 8 360 10 19 2 90 7 158 11 67 3 133 8 145 10 12 2 60 6 107
10 95 7 233 20 360 35 289 35 596 85 860 140 80 17 156 33 170 36 59 12 317
78 460 119 829 234 1616 611 2228 1068 193 144 316 250 497 432 194 193 217
218 355 390 392 490 698 1093 885 1745 25 85 49 169 55 185 41 131 124 552
164 830 26 182 29 207 46 385 6 63 13 129 15 145 27 235 27 974 0 1230 -11 97
-26 233 -31 265 -118 831 -389 1569 -819 2225 -574 878 -1318 1497 -2540 2115
-454 229 -768 368 -1325 586 -420 163 -1203 424 -1695 564 -471 135 -1128 281
-1500 335 -22 4 -47 8 -55 10 -8 2 -35 7 -60 10 -25 3 -56 8 -70 10 -14 2 -61
9 -105 15 -44 6 -91 13 -105 15 -123 19 -473 56 -650 70 -41 3 -97 8 -125 10
-27 2 -93 7 -145 10 -52 3 -131 8 -175 11 -90 6 -871 15 -876 10z"/>
</g>
</svg>
